<svg width="139" height="252" viewBox="0 0 139 252" fill="none" xmlns="http://www.w3.org/2000/svg">
<path d="M137.365 234.289C137.111 233.941 136.842 233.577 136.509 233.228C135.068 232.42 133.04 231.185 130.886 229.3L130.854 229.268C125.057 224.326 118.198 168.997 118.198 152.666V59.099C118.166 26.4686 91.7136 0.03168 59.099 0C26.4686 0.03168 0.03168 26.4845 0 59.099V185.122H30.793V139.408H87.4527V152.666C87.4527 169.599 80.5306 224.991 74.9707 229.838C74.9391 229.838 74.939 229.87 74.939 229.87C73.3075 231.28 71.7869 232.309 70.583 233.022C70.187 233.45 69.8386 233.878 69.5535 234.289C68.8407 235.351 68.4605 236.475 68.4605 237.648C68.4605 245.076 84.1579 251.08 103.451 251.08C122.744 251.08 138.442 245.076 138.442 237.648C138.442 236.475 138.046 235.351 137.349 234.289H137.365ZM30.7771 108.615V59.0832C30.7771 43.4174 43.465 30.7613 59.099 30.7613C74.7331 30.7613 87.4527 43.4174 87.4527 59.0832V108.615H30.793H30.7771Z" fill="white"/>
</svg>
