<svg width="518" height="188" viewBox="0 0 518 188" fill="none" xmlns="http://www.w3.org/2000/svg">
<path d="M252.768 59.8559V180.096H221.592V134.04H164.232V180.312H133.056V59.8799C133.08 26.8319 159.864 0.0719258 192.912 0.0239258C225.96 0.0719258 252.72 26.8319 252.768 59.8799V59.8559ZM221.616 102.84V59.8319C221.616 43.9919 208.776 31.1519 192.936 31.1519C177.096 31.1519 164.256 43.9919 164.256 59.8319V102.84H221.616Z" fill="white"/>
<path d="M112.08 7.48804V131.736C112.08 162.696 86.9761 187.776 56.0401 187.776C25.1041 187.776 0.00012207 162.672 0.00012207 131.736H31.1761C31.1761 145.464 42.3121 156.6 56.0401 156.6C69.7681 156.6 80.9041 145.464 80.9041 131.736V38.6641H56.0401V7.48804H112.08Z" fill="white"/>
<path d="M384.864 0V25.008C384.864 27.072 384.696 29.136 384.408 31.176C381.216 53.856 361.176 77.616 340.032 102.624C327.576 117.384 311.232 136.752 306.36 149.088H379.464V180.264H273.768V155.256C273.768 153.192 273.936 151.128 274.272 149.088C277.536 128.352 296.376 106.032 316.224 82.512C330.576 65.52 347.928 44.952 352.512 31.176H279.144V0H384.84H384.864Z" fill="white"/>
<path d="M517.44 0V25.008C517.44 27.072 517.272 29.136 516.984 31.176C513.792 53.856 493.752 77.616 472.608 102.624C460.152 117.384 443.808 136.752 438.936 149.088H512.04V180.264H406.344V155.256C406.344 153.192 406.512 151.128 406.848 149.088C410.112 128.352 428.952 106.032 448.8 82.512C463.152 65.52 480.504 44.952 485.088 31.176H411.72V0H517.416H517.44Z" fill="white"/>
</svg>
